<svg width="21" height="16" viewBox="0 0 21 16" fill="none" xmlns="http://www.w3.org/2000/svg">
<path d="M18.9392 0.318359C19.9548 0.318359 20.8142 1.17773 20.8142 2.19336V13.4434C20.8142 14.498 19.9548 15.3184 18.9392 15.3184H2.68921C1.63452 15.3184 0.814209 14.498 0.814209 13.4434V2.19336C0.814209 1.17773 1.63452 0.318359 2.68921 0.318359H18.9392ZM18.9392 2.19336H2.68921V3.79492C3.54858 4.53711 4.95483 5.63086 7.92358 7.97461C8.58765 8.48242 9.87671 9.73242 10.8142 9.69336C11.7126 9.73242 13.0017 8.48242 13.6658 7.97461C16.6345 5.63086 18.0408 4.53711 18.9392 3.79492V2.19336ZM2.68921 13.4434H18.9392V6.2168C18.0408 6.91992 16.7517 7.93555 14.8376 9.45898C13.9392 10.123 12.4548 11.6074 10.8142 11.5684C9.13452 11.6074 7.61108 10.123 6.75171 9.45898C4.83765 7.93555 3.54858 6.91992 2.68921 6.2168V13.4434Z" fill="#8EBA1C"/>
</svg>
