<svg width="17" height="13" viewBox="0 0 17 13" fill="none" xmlns="http://www.w3.org/2000/svg">
<path d="M14.6742 0.307617C15.4867 0.307617 16.1742 0.995117 16.1742 1.80762V10.8076C16.1742 11.6514 15.4867 12.3076 14.6742 12.3076H1.67419C0.830444 12.3076 0.174194 11.6514 0.174194 10.8076V1.80762C0.174194 0.995117 0.830444 0.307617 1.67419 0.307617H14.6742ZM14.6742 1.80762H1.67419V3.08887C2.36169 3.68262 3.48669 4.55762 5.86169 6.43262C6.39294 6.83887 7.42419 7.83887 8.17419 7.80762C8.89294 7.83887 9.92419 6.83887 10.4554 6.43262C12.8304 4.55762 13.9554 3.68262 14.6742 3.08887V1.80762ZM1.67419 10.8076H14.6742V5.02637C13.9554 5.58887 12.9242 6.40137 11.3929 7.62012C10.6742 8.15137 9.48669 9.33887 8.17419 9.30762C6.83044 9.33887 5.61169 8.15137 4.92419 7.62012C3.39294 6.40137 2.36169 5.58887 1.67419 5.02637V10.8076Z" fill="white"/>
</svg>
