<svg width="37" height="37" viewBox="0 0 37 37" fill="none" xmlns="http://www.w3.org/2000/svg">
<rect x="0.814209" y="0.307617" width="36" height="36" rx="18" fill="white" fill-opacity="0.71"/>
<path d="M27.533 18.5576C27.533 22.917 24.3337 26.5381 20.1501 27.1709V21.0889H22.1892L22.5759 18.5576H20.1501V16.9404C20.1501 16.2373 20.5017 15.5693 21.5916 15.5693H22.6814V13.4248C22.6814 13.4248 21.697 13.249 20.7126 13.249C18.7439 13.249 17.4431 14.4795 17.4431 16.6592V18.5576H15.2283V21.0889H17.4431V27.1709C13.2595 26.5381 10.0955 22.917 10.0955 18.5576C10.0955 13.7412 13.9978 9.83887 18.8142 9.83887C23.6306 9.83887 27.533 13.7412 27.533 18.5576Z" fill="#8EBA1C"/>
</svg>
