<svg width="16" height="21" viewBox="0 0 16 21" fill="none" xmlns="http://www.w3.org/2000/svg">
<path d="M7.53296 20.0166C1.82983 11.8135 0.814209 10.9541 0.814209 7.90723C0.814209 3.7666 4.13452 0.407227 8.31421 0.407227C12.4548 0.407227 15.8142 3.7666 15.8142 7.90723C15.8142 10.9541 14.7595 11.8135 9.0564 20.0166C8.70483 20.5635 7.88452 20.5635 7.53296 20.0166ZM8.31421 11.0322C10.033 11.0322 11.4392 9.66504 11.4392 7.90723C11.4392 6.18848 10.033 4.78223 8.31421 4.78223C6.5564 4.78223 5.18921 6.18848 5.18921 7.90723C5.18921 9.66504 6.5564 11.0322 8.31421 11.0322Z" fill="#8EBA1C"/>
</svg>
