<svg width="71" height="71" viewBox="0 0 71 71" fill="none" xmlns="http://www.w3.org/2000/svg">
<path d="M28.2885 52.3159C29.093 52.7102 29.8127 52.9083 30.4112 52.9083C30.8492 52.9274 31.2789 52.7852 31.619 52.5085C31.6602 52.473 31.6977 52.4333 31.731 52.3903C31.8316 52.2881 31.9622 52.2208 32.1038 52.198C32.3698 52.1679 32.6668 52.3581 32.8682 52.523C33.5805 53.1063 34.7985 53.0086 36.2985 52.2479C39.5261 50.611 42.8761 46.5671 42.6041 41.5565C42.5059 39.7487 41.8878 37.3352 39.5006 36.1027C37.2513 34.9415 34.4925 35.3425 32.972 35.8796C32.9668 35.7605 32.9594 35.6444 32.9508 35.5301C34.6949 35.0852 37.0586 33.7567 37.0559 30.8985C37.0553 30.7706 37.0284 30.6442 36.9767 30.5272C36.9251 30.4103 36.8498 30.3052 36.7557 30.2187C36.6615 30.1321 36.5505 30.066 36.4296 30.0243C36.3087 29.9826 36.1805 29.9664 36.0531 29.9766C33.8805 30.152 32.5883 30.9746 31.8641 31.887C31.2947 30.9716 30.7117 30.5965 30.6618 30.5656L29.7986 31.9612L29.7863 31.9535C29.8501 31.9963 31.199 32.9397 31.3327 35.9299C29.799 35.4338 26.9546 34.9932 24.7524 36.2208C22.5391 37.4547 21.961 39.8037 21.8657 41.5569C21.7339 43.9856 22.44 46.3738 23.9059 48.4637C25.0647 50.1148 26.6621 51.5183 28.2885 52.3159ZM35.2973 31.7351C34.8968 33.0584 33.5679 33.6447 32.7105 33.8906C32.7697 33.4553 33.1289 32.1793 35.2973 31.7351ZM23.5043 41.6458C23.6103 39.6952 24.2989 38.352 25.5515 37.6536C26.3351 37.2169 27.2742 37.0608 28.1779 37.0608C29.5724 37.0608 30.8815 37.4324 31.402 37.7171C31.5922 37.8196 31.8018 37.8807 32.0172 37.8966C32.0461 37.9012 32.0753 37.9043 32.1045 37.9059C32.119 37.9065 32.1333 37.907 32.1475 37.907C32.2016 37.9069 32.2556 37.9015 32.3086 37.8908C32.5508 37.8669 32.7843 37.7874 32.9907 37.6584C33.6352 37.2514 36.5917 36.4483 38.7476 37.5615C40.1105 38.265 40.8567 39.6396 40.9656 41.6463C41.1777 45.5525 38.813 48.6271 36.5291 50.2019C35.0814 51.2 34.0918 51.3148 33.8921 51.2417C33.2481 50.7193 32.5837 50.493 31.9184 50.5685C31.3954 50.6341 30.9109 50.8777 30.5462 51.2582C30.3064 51.3208 29.3593 51.1918 27.9408 50.2092C25.6574 48.6269 23.2924 45.5467 23.5043 41.6458Z" fill="black"/>
<path d="M27.1536 46.241C27.239 46.1754 27.3107 46.0935 27.3644 46.0002C27.4182 45.9068 27.4531 45.8038 27.4671 45.697C27.481 45.5902 27.4738 45.4817 27.4458 45.3776C27.4179 45.2736 27.3697 45.1761 27.304 45.0907C26.3121 43.802 26.544 42.1217 26.5494 42.0841C26.5663 41.9777 26.562 41.869 26.5368 41.7643C26.5116 41.6595 26.466 41.5608 26.4027 41.4737C26.3393 41.3865 26.2594 41.3127 26.1675 41.2565C26.0757 41.2002 25.9736 41.1626 25.8672 41.1458C25.7608 41.129 25.6521 41.1333 25.5474 41.1585C25.4427 41.1837 25.3439 41.2292 25.2568 41.2926C25.1696 41.3559 25.0958 41.4358 25.0396 41.5277C24.9833 41.6196 24.9457 41.7216 24.9289 41.828C24.9135 41.925 24.5658 44.2228 26.0038 46.0912C26.0695 46.1766 26.1513 46.2482 26.2446 46.302C26.338 46.3558 26.441 46.3907 26.5478 46.4046C26.6547 46.4186 26.7632 46.4114 26.8672 46.3834C26.9712 46.3554 27.0687 46.3072 27.1542 46.2416L27.1536 46.241Z" fill="black"/>
<path d="M6.36279 49.8136C6.36279 50.0312 6.44922 50.2399 6.60306 50.3937C6.7569 50.5475 6.96555 50.634 7.18311 50.634C7.40067 50.634 7.60932 50.5475 7.76315 50.3937C7.91699 50.2399 8.00342 50.0312 8.00342 49.8136V47.2588C8.00342 47.0412 7.91699 46.8326 7.76315 46.6787C7.60932 46.5249 7.40067 46.4385 7.18311 46.4385C6.96555 46.4385 6.7569 46.5249 6.60306 46.6787C6.44922 46.8326 6.36279 47.0412 6.36279 47.2588V49.8136Z" fill="black"/>
<path d="M7.18311 44.3595C7.40067 44.3595 7.60932 44.273 7.76315 44.1192C7.91699 43.9654 8.00342 43.7567 8.00342 43.5391V31.4365C8.00342 31.219 7.91699 31.0103 7.76315 30.8565C7.60932 30.7026 7.40067 30.6162 7.18311 30.6162C6.96555 30.6162 6.7569 30.7026 6.60306 30.8565C6.44922 31.0103 6.36279 31.219 6.36279 31.4365V43.5391C6.36279 43.7567 6.44922 43.9654 6.60306 44.1192C6.7569 44.273 6.96555 44.3595 7.18311 44.3595Z" fill="black"/>
<path d="M59.2213 14.1982C53.5829 14.1982 48.9955 19.8414 48.9955 26.7779C48.9955 31.589 51.1694 35.9062 54.6673 38.0447C54.913 38.1976 55.1156 38.4107 55.2559 38.6637C55.3962 38.9168 55.4697 39.2014 55.4693 39.4908V64.3833C55.4693 65.3784 55.8646 66.3327 56.5682 67.0364C57.2719 67.74 58.2262 68.1353 59.2213 68.1353C60.2164 68.1353 61.1707 67.74 61.8743 67.0364C62.578 66.3327 62.9733 65.3784 62.9733 64.3833V39.4908C62.9729 39.2015 63.0463 38.9168 63.1866 38.6638C63.327 38.4107 63.5295 38.1977 63.7751 38.0447C67.2732 35.9062 69.447 31.589 69.447 26.7779C69.447 19.8414 64.8597 14.1982 59.2213 14.1982ZM62.9194 36.645C62.4347 36.9452 62.0346 37.3641 61.757 37.8621C61.4793 38.3601 61.3332 38.9207 61.3326 39.4908V64.3833C61.3326 64.9433 61.1102 65.4803 60.7142 65.8763C60.3183 66.2722 59.7813 66.4947 59.2213 66.4947C58.6613 66.4947 58.1243 66.2722 57.7283 65.8763C57.3324 65.4803 57.1099 64.9433 57.1099 64.3833V39.4908C57.1093 38.9206 56.9633 38.3601 56.6856 37.8621C56.4079 37.3641 56.0078 36.9452 55.523 36.645C52.5543 34.8303 50.6362 30.9575 50.6362 26.7779C50.6362 20.7461 54.4874 15.8389 59.2213 15.8389C63.9552 15.8389 67.8064 20.7461 67.8064 26.7779C67.8064 30.9572 65.8882 34.8303 62.9194 36.645Z" fill="black"/>
<path d="M53.574 28.645C53.541 28.43 53.4239 28.2368 53.2485 28.1081C53.073 27.9794 52.8537 27.9257 52.6386 27.9587C52.4236 27.9918 52.2305 28.1089 52.1018 28.2843C51.9731 28.4597 51.9194 28.6791 51.9524 28.8941C52.0514 29.5415 52.2046 30.1794 52.4104 30.8012C52.4811 31.0049 52.6293 31.1726 52.8228 31.2679C53.0162 31.3633 53.2395 31.3785 53.4441 31.3105C53.6488 31.2424 53.8184 31.0965 53.9163 30.9043C54.0142 30.7121 54.0324 30.4891 53.9671 30.2836C53.7904 29.7493 53.6589 29.2012 53.574 28.645Z" fill="black"/>
<path d="M54.8325 20.4204C54.6537 20.2965 54.433 20.2488 54.2189 20.2876C54.0049 20.3264 53.8151 20.4487 53.6912 20.6275C52.5909 22.2155 51.9275 24.2653 51.8243 26.3996C51.8137 26.6169 51.8899 26.8295 52.036 26.9906C52.1822 27.1517 52.3863 27.2482 52.6036 27.2588C52.6172 27.2588 52.6309 27.2597 52.6446 27.2597C52.8551 27.2596 53.0576 27.1784 53.21 27.0331C53.3624 26.8878 53.453 26.6895 53.4633 26.4792C53.5521 24.6472 54.1121 22.901 55.0399 21.5618C55.1012 21.4733 55.1445 21.3735 55.1673 21.2682C55.1901 21.1629 55.1919 21.0541 55.1726 20.9482C55.1534 20.8422 55.1134 20.741 55.055 20.6504C54.9967 20.5599 54.9211 20.4817 54.8325 20.4204Z" fill="black"/>
<path d="M43.3611 11.3456C43.7787 11.2122 44.1431 10.9497 44.4019 10.5959C44.6606 10.2421 44.8003 9.81521 44.8009 9.37686V4.37664C44.8009 4.1053 44.7475 3.83662 44.6436 3.58593C44.5398 3.33524 44.3876 3.10746 44.1957 2.9156C44.0038 2.72374 43.7761 2.57156 43.5254 2.46774C43.2747 2.36393 43.006 2.31051 42.7346 2.31055H6.7988C6.25055 2.31055 5.72475 2.52834 5.33708 2.91601C4.9494 3.30369 4.73161 3.82948 4.73161 4.37773V9.3774C4.73237 9.82251 4.87663 10.2555 5.143 10.6121C5.40937 10.9687 5.78363 11.2299 6.21022 11.357L5.25661 12.9816C3.24301 16.412 2.18141 20.3176 2.1814 24.2953V25.4398C2.1814 25.6574 2.26782 25.866 2.42166 26.0199C2.5755 26.1737 2.78415 26.2601 3.00171 26.2601C3.21927 26.2601 3.42792 26.1737 3.58176 26.0199C3.7356 25.866 3.82202 25.6574 3.82202 25.4398V24.2953C3.82311 20.6094 4.80696 16.9905 6.6722 13.8113L8.06194 11.4435H41.5208L42.9132 13.8432C44.7454 17.0012 45.7104 20.5873 45.7105 24.2383V26.4139H19.2773C18.3279 26.4148 17.4176 26.7921 16.7461 27.4632C16.0746 28.1343 15.6966 29.0444 15.6952 29.9938V52.7414C15.6952 53.6915 16.0726 54.6026 16.7444 55.2743C17.4161 55.9461 18.3272 56.3235 19.2773 56.3235H45.7105V63.7618C45.7093 64.4007 45.4548 65.0131 45.0027 65.4646C44.5507 65.9161 43.9379 66.1698 43.299 66.1701H6.23333C5.5945 66.1698 4.98188 65.9161 4.52984 65.4647C4.0778 65.0133 3.82325 64.401 3.82202 63.7622V32.5493C3.82202 32.3318 3.7356 32.1231 3.58176 31.9693C3.42792 31.8154 3.21927 31.729 3.00171 31.729C2.78415 31.729 2.5755 31.8154 2.42166 31.9693C2.26782 32.1231 2.1814 32.3318 2.1814 32.5493V63.7622C2.18299 64.8361 2.6105 65.8655 3.37012 66.6245C4.12975 67.3836 5.15946 67.8103 6.23333 67.8111H43.299C44.3729 67.8103 45.4026 67.3836 46.1623 66.6245C46.9219 65.8655 47.3495 64.8361 47.3511 63.7622V24.2368C47.3511 20.2977 46.3099 16.4286 44.3332 13.0215L43.3611 11.3456ZM43.1602 9.37686C43.16 9.48978 43.115 9.598 43.035 9.67777C42.9551 9.75753 42.8467 9.80233 42.7338 9.80232H6.7988C6.68586 9.80233 6.57752 9.75753 6.49756 9.67777C6.41759 9.59801 6.37253 9.4898 6.37224 9.37686V4.37664C6.37253 4.2637 6.41759 4.15548 6.49756 4.07572C6.57752 3.99596 6.68586 3.95117 6.7988 3.95117H42.7335C42.8465 3.95117 42.9548 3.99597 43.0347 4.07573C43.1147 4.15549 43.1597 4.26371 43.16 4.37664L43.1602 9.37686ZM45.7107 54.6827H19.2773C18.7628 54.6824 18.2695 54.478 17.9056 54.1144C17.5417 53.7509 17.3368 53.2578 17.3358 52.7434V29.9934C17.3368 29.4789 17.5417 28.9859 17.9056 28.6224C18.2696 28.2588 18.7628 28.0545 19.2773 28.0541H45.7105L45.7107 54.6827Z" fill="black"/>
</svg>
