<svg width="71" height="71" viewBox="0 0 71 71" fill="none" xmlns="http://www.w3.org/2000/svg">
<path d="M49.8221 32.3574C49.4355 32.3574 49.1221 32.6708 49.1221 33.0574V36.3554H45.8241C45.4375 36.3554 45.1241 36.6688 45.1241 37.0554C45.1241 37.442 45.4375 37.7554 45.8241 37.7554H49.1221V41.0531C49.1221 41.4396 49.4355 41.7531 49.8221 41.7531C50.2087 41.7531 50.5221 41.4396 50.5221 41.0531V37.7554H53.8197C54.2063 37.7554 54.5197 37.442 54.5197 37.0554C54.5197 36.6688 54.2063 36.3554 53.8197 36.3554H50.5221V33.0574C50.5221 32.6708 50.2087 32.3574 49.8221 32.3574Z" fill="black"/>
<path d="M31.1798 63.1992C40.9251 63.1992 49.6829 57.0933 53.0759 47.9825C56.6093 45.9178 62.1735 41.7794 63.5462 35.6145C64.7514 30.2025 61.814 26.3525 58.5748 25.0653C55.734 23.9362 52.7959 24.6638 50.6294 26.8962C50.1425 26.1637 49.6212 25.4646 49.0658 24.8006L50.7835 22.751C51.8828 21.4398 51.7102 19.479 50.399 18.3794L48.7943 17.0348C47.4828 15.9359 45.5212 16.1085 44.4234 17.4196L42.6977 19.4765C39.4502 17.6386 35.7569 16.6005 31.8798 16.4873V14.2522H34.2112C35.6327 14.2522 36.789 13.0959 36.789 11.6744V9.77705C36.789 8.35552 35.6327 7.19922 34.2112 7.19922H28.148C26.7269 7.19922 25.5706 8.35552 25.5706 9.77705V11.6744C25.5706 13.0959 26.7269 14.2522 28.148 14.2522H30.4798V16.4828C26.5642 16.5988 22.8891 17.6809 19.6827 19.5013L17.9365 17.42C16.8373 16.1085 14.8774 15.9362 13.5649 17.0348L11.9605 18.3797C11.3255 18.9123 10.9355 19.6601 10.8627 20.4855C10.7899 21.3113 11.0432 22.1159 11.5757 22.7506L13.3005 24.8091C9.87922 28.8743 7.8125 34.1152 7.8125 39.8319C7.8125 52.7166 18.2951 63.1992 31.1798 63.1992ZM26.9706 11.6744V9.77705C26.9706 9.12764 27.4986 8.59922 28.148 8.59922H34.2112C34.8606 8.59922 35.389 9.12764 35.389 9.77705V11.6744C35.389 12.3238 34.8606 12.8522 34.2112 12.8522H28.148C27.4986 12.8522 26.9706 12.3238 26.9706 11.6744ZM31.1798 61.7992C19.0668 61.7992 9.2125 51.9449 9.2125 39.8319C9.2125 27.7193 19.0668 17.865 31.1798 17.865C38.1636 17.865 44.5602 21.0955 48.701 26.5932C46.624 24.6545 43.9188 24.0295 41.2809 24.9908C38.2954 22.9544 34.8146 21.8705 31.1798 21.8705C21.2755 21.8705 13.218 29.928 13.218 39.8319C13.218 49.7362 21.2755 57.7937 31.1798 57.7937C37.8021 57.7937 43.938 54.069 47.0367 48.2519C48.4284 49.0345 49.4186 49.457 49.5517 49.5126C49.6382 49.5485 49.7298 49.5666 49.8217 49.5666C49.9137 49.5666 50.0053 49.5485 50.0917 49.5123C50.1699 49.4797 50.5482 49.3179 51.1251 49.0338C47.5652 56.7399 39.7813 61.7992 31.1798 61.7992ZM36.0976 35.6145C37.3775 41.3667 42.3064 45.3528 45.8312 47.5385C42.9831 52.935 37.3074 56.3937 31.1798 56.3937C22.0477 56.3937 14.618 48.9641 14.618 39.8319C14.618 30.6998 22.0477 23.2705 31.1798 23.2705C34.2606 23.2705 37.2228 24.1114 39.819 25.7045C37.1312 27.3921 35.0505 30.9125 36.0976 35.6145ZM58.0577 26.3665C60.763 27.4411 63.2065 30.6984 62.1797 35.3103C60.4964 42.8698 51.5041 47.3269 49.8217 48.1003C48.1394 47.3269 39.146 42.8698 37.4641 35.3103C36.4373 30.6984 38.8808 27.4411 41.5854 26.3665C42.2455 26.1043 42.9844 25.9475 43.7541 25.9475C45.6251 25.9475 47.678 26.8734 49.2205 29.4618C49.4728 29.8856 50.1707 29.8856 50.4229 29.4618C52.6002 25.8077 55.7943 25.4662 58.0577 26.3665ZM45.4963 18.3189C46.0996 17.5994 47.1752 17.5047 47.8954 18.108L49.4994 19.4523C50.2192 20.0559 50.3139 21.1319 49.7106 21.8517L48.1265 23.742C46.8533 22.3938 45.4415 21.2062 43.9095 20.2102L45.4963 18.3189ZM12.6486 21.8514C12.3563 21.5031 12.2176 21.0615 12.2572 20.6086C12.2972 20.1554 12.5112 19.7449 12.8602 19.4526L14.4642 18.108C15.1847 17.5051 16.2604 17.5998 16.8636 18.3192L18.4728 20.2373C16.9278 21.2427 15.5095 22.4251 14.245 23.7565L12.6486 21.8514Z" fill="black"/>
<path d="M31.8798 35.6829V27.0086C31.8798 26.622 31.5663 26.3086 31.1798 26.3086C30.7932 26.3086 30.4798 26.622 30.4798 27.0086V35.6829C28.4899 36.018 26.9675 37.7486 26.9675 39.8321C26.9675 42.155 28.8573 44.0448 31.1798 44.0448C33.5023 44.0448 35.3921 42.155 35.3921 39.8321C35.3921 37.7486 33.8696 36.018 31.8798 35.6829ZM31.1798 42.6448C29.629 42.6448 28.3675 41.3829 28.3675 39.8321C28.3675 38.2814 29.629 37.0198 31.1798 37.0198C32.7305 37.0198 33.9921 38.2814 33.9921 39.8321C33.9921 41.3829 32.7305 42.6448 31.1798 42.6448Z" fill="black"/>
</svg>
