<svg width="73" height="76" viewBox="0 0 73 76" fill="none" xmlns="http://www.w3.org/2000/svg">
<g filter="url(#filter0_d_1_2465)">
<g filter="url(#filter1_d_1_2465)">
<path d="M67.8152 13.0052C68.1725 12.6479 68.6756 11.2522 67.245 10.5902L63.5627 9.36225L62.3333 5.6785C62.1744 5.1987 61.2469 4.11808 59.9198 5.10829L55.3814 9.64662C49.8019 5.45537 43.181 3.22412 36.1591 3.22412C18.4681 3.22412 4.07581 17.6164 4.07581 35.3075C4.07581 52.9985 18.4681 67.3908 36.1591 67.3908C53.8502 67.3908 68.2425 52.9985 68.2425 35.3075C68.2425 29.0366 66.4269 23.0122 63.0216 17.7987L67.8152 13.0052ZM58.8887 17.8075H56.8121L62.7752 12.1754L64.0833 12.6114L58.8887 17.8075ZM38.141 31.4297C36.1591 30.3375 31.9898 31.0447 31.7841 35.3075C31.6675 37.7166 33.7471 39.7043 36.1591 39.6825C40.7091 39.6416 40.9556 34.835 40.1535 33.54L45.5625 28.4314C46.9785 30.3622 47.8258 32.735 47.8258 35.3075C47.8258 41.7402 42.5919 46.9741 36.1591 46.9741C29.7264 46.9741 24.4925 41.7402 24.4925 35.3075C24.4925 28.8747 29.7264 23.6408 36.1591 23.6408C38.9708 23.6408 41.5521 24.6412 43.5689 26.3037L38.141 31.4297ZM45.6923 24.297C43.1329 22.0775 39.805 20.7241 36.1591 20.7241C28.1179 20.7241 21.5758 27.2662 21.5758 35.3075C21.5758 43.3487 28.1179 49.8908 36.1591 49.8908C44.2004 49.8908 50.7425 43.3487 50.7425 35.3075C50.7425 31.9606 49.5977 28.882 47.6946 26.4189L51.9573 22.3939C54.8404 25.9143 56.5758 30.4118 56.5758 35.3075C56.5758 46.5658 47.4175 55.7241 36.1591 55.7241C24.9008 55.7241 15.7425 46.5658 15.7425 35.3075C15.7425 24.0491 24.9008 14.8908 36.1591 14.8908C41.4733 14.8908 46.3033 16.9485 49.9389 20.2866L45.6923 24.297ZM60.3121 8.84016L60.7306 10.0943L55.1175 15.3968V14.0362L60.3121 8.84016ZM65.3258 35.3075C65.3258 51.39 52.2416 64.4741 36.1591 64.4741C20.0766 64.4741 6.99247 51.39 6.99247 35.3075C6.99247 19.225 20.0766 6.14079 36.1591 6.14079C42.4023 6.14079 48.2939 8.08475 53.296 11.7335C53.296 11.7335 52.1133 12.5925 52.2008 13.4325L52.0623 18.2814C47.89 14.3818 42.3075 11.9741 36.1591 11.9741C23.2937 11.9741 12.8258 22.442 12.8258 35.3075C12.8258 48.1729 23.2937 58.6408 36.1591 58.6408C49.0246 58.6408 59.4925 48.1729 59.4925 35.3075C59.4925 29.7906 57.5573 24.7229 54.3446 20.7241H59.4925C60.3354 20.7343 60.9114 19.9089 60.9114 19.9089C63.7931 24.526 65.3258 29.8125 65.3258 35.3075Z" fill="white"/>
</g>
</g>
<defs>
<filter id="filter0_d_1_2465" x="-2.84082" y="0.307617" width="78" height="78" filterUnits="userSpaceOnUse" color-interpolation-filters="sRGB">
<feFlood flood-opacity="0" result="BackgroundImageFix"/>
<feColorMatrix in="SourceAlpha" type="matrix" values="0 0 0 0 0 0 0 0 0 0 0 0 0 0 0 0 0 0 127 0" result="hardAlpha"/>
<feOffset dy="4"/>
<feGaussianBlur stdDeviation="2"/>
<feComposite in2="hardAlpha" operator="out"/>
<feColorMatrix type="matrix" values="0 0 0 0 0 0 0 0 0 0 0 0 0 0 0 0 0 0 0.25 0"/>
<feBlend mode="normal" in2="BackgroundImageFix" result="effect1_dropShadow_1_2465"/>
<feBlend mode="normal" in="SourceGraphic" in2="effect1_dropShadow_1_2465" result="shape"/>
</filter>
<filter id="filter1_d_1_2465" x="0.0758057" y="3.22412" width="72.1666" height="72.1665" filterUnits="userSpaceOnUse" color-interpolation-filters="sRGB">
<feFlood flood-opacity="0" result="BackgroundImageFix"/>
<feColorMatrix in="SourceAlpha" type="matrix" values="0 0 0 0 0 0 0 0 0 0 0 0 0 0 0 0 0 0 127 0" result="hardAlpha"/>
<feOffset dy="4"/>
<feGaussianBlur stdDeviation="2"/>
<feComposite in2="hardAlpha" operator="out"/>
<feColorMatrix type="matrix" values="0 0 0 0 0 0 0 0 0 0 0 0 0 0 0 0 0 0 0.25 0"/>
<feBlend mode="normal" in2="BackgroundImageFix" result="effect1_dropShadow_1_2465"/>
<feBlend mode="normal" in="SourceGraphic" in2="effect1_dropShadow_1_2465" result="shape"/>
</filter>
</defs>
</svg>
