<svg width="71" height="71" viewBox="0 0 71 71" fill="none" xmlns="http://www.w3.org/2000/svg">
<path d="M47.6818 10.5205C47.6818 9.91894 48.1739 9.42676 48.7755 9.42676C57.3204 9.42676 64.2657 16.3721 64.2657 24.917C64.2657 25.5186 63.7736 26.0107 63.172 26.0107C62.5704 26.0107 62.0782 25.5186 62.0782 24.917C62.0782 17.5752 56.1173 11.6143 48.7755 11.6143C48.1603 11.6143 47.6818 11.1221 47.6818 10.5205ZM70.6642 40.667C70.6642 41.2686 70.172 41.7471 69.5704 41.7471C69.5704 41.7471 69.5704 41.7471 69.5568 41.7471L61.5724 41.6787C56.1583 48.2139 49.0353 54.7764 43.0743 60.2588C40.4493 62.6787 38.1798 64.7705 36.4298 66.5205C36.2247 66.7256 35.9513 66.835 35.6505 66.835C35.3634 66.835 35.0763 66.7256 34.8712 66.5205C33.1212 64.7705 30.8517 62.6787 28.213 60.2451C22.1017 54.6123 14.7736 47.8721 9.31848 41.1728H1.75793C1.15637 41.1728 0.664185 40.6807 0.664185 40.0791C0.664185 39.4775 1.15637 38.9853 1.75793 38.9853H7.62317C3.90442 34.0498 1.40247 29.1963 1.40247 24.917C1.40247 13.2549 10.8907 3.75293 22.5665 3.75293C27.3243 3.75293 31.9454 5.36621 35.6642 8.30566C39.3829 5.36621 44.004 3.75293 48.7755 3.75293C60.4376 3.75293 69.9396 13.2412 69.9396 24.917C69.9396 29.333 67.2599 34.3779 63.3361 39.5049L69.5978 39.5596C70.1857 39.5596 70.6642 40.0654 70.6642 40.667ZM10.4122 39.0127H24.2618L29.3614 17.0557C29.4708 16.5635 29.922 16.208 30.4279 16.208C30.9337 16.208 31.3712 16.5635 31.4943 17.0557L37.9611 44.5635L42.09 30.4814C42.213 30.0439 42.6095 29.7295 43.0607 29.7021C43.5118 29.6748 43.9493 29.9209 44.1407 30.3311L48.297 39.3955L60.5333 39.4912C64.7579 34.2549 67.7384 29.1279 67.7384 24.917C67.7384 14.458 59.2345 5.94043 48.7755 5.94043C44.2228 5.94043 39.8204 7.58105 36.3888 10.5479C35.9786 10.9033 35.3634 10.9033 34.9532 10.5479C31.5079 7.58105 27.1193 5.94043 22.5665 5.94043C12.0939 5.9541 3.58997 14.458 3.58997 24.917C3.58997 29.0049 6.3927 33.9404 10.4122 39.0127ZM58.715 41.665L47.5861 41.583C47.1622 41.583 46.7794 41.3369 46.6017 40.9404L43.3751 33.9131L38.9044 49.1572C38.7677 49.6221 38.3439 49.9502 37.8517 49.9502C37.838 49.9502 37.838 49.9502 37.8243 49.9502C37.3322 49.9365 36.9083 49.5947 36.7853 49.1025L30.4415 22.1143L26.2032 40.3525C26.0939 40.8447 25.6427 41.2002 25.1368 41.2002H12.2169C17.5353 47.4346 24.3302 53.6963 29.7169 58.6592C32.0001 60.7646 34.0099 62.6103 35.6642 64.2236C37.3185 62.6103 39.3282 60.7646 41.5978 58.6592C46.8478 53.833 53.4513 47.749 58.715 41.665Z" fill="white"/>
</svg>
