<svg width="71" height="71" viewBox="0 0 71 71" fill="none" xmlns="http://www.w3.org/2000/svg">
<path d="M40.927 20.917H23.6601C23.0926 20.917 22.6326 21.3771 22.6326 21.9444C22.6326 22.5118 23.0926 22.9719 23.6601 22.9719H40.927C41.4945 22.9719 41.9544 22.5118 41.9544 21.9444C41.9544 21.3769 41.4945 20.917 40.927 20.917Z" fill="black"/>
<path d="M23.6601 26.6584H33.3649C33.9324 26.6584 34.3924 26.1983 34.3924 25.631C34.3924 25.0636 33.9324 24.6035 33.3649 24.6035H23.6601C23.0926 24.6035 22.6326 25.0636 22.6326 25.631C22.6328 26.1983 23.0927 26.6584 23.6601 26.6584Z" fill="black"/>
<path d="M18.4892 20.4976L14.7076 24.3753L13.0716 22.7845C12.6649 22.3888 12.0143 22.3981 11.6188 22.8047C11.2233 23.2116 11.2323 23.862 11.6392 24.2576L14.0106 26.5638C14.4114 26.9539 15.0719 26.9447 15.4623 26.5445L19.9602 21.9322C20.3564 21.526 20.3483 20.8755 19.942 20.4793C19.5354 20.0831 18.8853 20.0915 18.4892 20.4976Z" fill="black"/>
<path d="M40.927 31.3809H23.6601C23.0926 31.3809 22.6326 31.8408 22.6326 32.4083C22.6326 32.9757 23.0926 33.4357 23.6601 33.4357H40.927C41.4945 33.4357 41.9544 32.9757 41.9544 32.4083C41.9544 31.8409 41.4945 31.3809 40.927 31.3809Z" fill="black"/>
<path d="M33.3649 35.0674H23.6601C23.0926 35.0674 22.6326 35.5273 22.6326 36.0948C22.6326 36.6623 23.0926 37.1223 23.6601 37.1223H33.3649C33.9324 37.1223 34.3924 36.6622 34.3924 36.0948C34.3924 35.5274 33.9324 35.0674 33.3649 35.0674Z" fill="black"/>
<path d="M18.4892 30.9615L14.7076 34.8393L13.0716 33.2484C12.6646 32.8527 12.0143 32.862 11.6188 33.2688C11.2233 33.6755 11.2323 34.326 11.6392 34.7216L14.0106 37.0276C14.4114 37.4176 15.0719 37.4085 15.4623 37.0083L19.9602 32.3961C20.3564 31.9899 20.3483 31.3394 19.942 30.9432C19.5357 30.547 18.8853 30.5553 18.4892 30.9615Z" fill="black"/>
<path d="M18.4892 41.4253L14.7076 45.303L13.0716 43.7122C12.6649 43.3165 12.0143 43.3258 11.6188 43.7325C11.2233 44.1393 11.2323 44.7898 11.6392 45.1853L14.0106 47.4913C14.4114 47.8814 15.0719 47.8722 15.4623 47.4721L19.9602 42.8599C20.3564 42.4537 20.3483 41.8032 19.942 41.407C19.5357 41.0109 18.8853 41.0192 18.4892 41.4253Z" fill="black"/>
<path d="M18.4892 51.8883L14.7076 55.7661L13.0716 54.1752C12.6649 53.7795 12.0143 53.7888 11.6188 54.1954C11.2233 54.6022 11.2323 55.2527 11.6392 55.6483L14.0106 57.9545C14.4114 58.3446 15.0719 58.3354 15.4623 57.9352L19.9602 53.323C20.3564 52.9168 20.3483 52.2663 19.942 51.8701C19.5357 51.4736 18.8853 51.4821 18.4892 51.8883Z" fill="black"/>
<path d="M60.8899 36.0594C63.0631 32.7898 62.5742 28.2908 62.5494 28.078C62.4945 27.6044 62.1208 27.2308 61.6472 27.1758C61.4082 27.1482 55.7553 26.5338 52.5182 29.771C52.3427 29.9466 52.1814 30.131 52.0278 30.3195V23.2063C52.0278 22.6389 51.5679 22.1789 51.0004 22.1789C50.4329 22.1789 49.9729 22.6388 49.9729 23.2063V33.0077C49.2874 31.923 48.3735 30.8348 47.1572 29.8462V11.8767C47.1572 11.3093 46.6973 10.8493 46.1298 10.8493H38.9659V7.97654H48.3392C49.24 7.97654 49.9728 8.70949 49.9728 9.61019V19.0967C49.9728 19.6641 50.4327 20.1241 51.0003 20.1241C51.5678 20.1241 52.0277 19.6641 52.0277 19.0967V9.61033C52.0277 7.5765 50.373 5.92193 48.3393 5.92193H38.765C38.3542 4.899 37.3538 4.17385 36.1857 4.17385H32.7852V2.66256C32.7855 1.329 31.7005 0.244141 30.3671 0.244141H23.9019C22.5684 0.244141 21.4834 1.329 21.4834 2.66256V4.17371H18.0832C16.9149 4.17371 15.9147 4.89873 15.5038 5.9218H5.92955C3.89572 5.9218 2.24115 7.57637 2.24115 9.61019V66.5284C2.24115 68.5622 3.89586 70.2168 5.92955 70.2168H46.2054C47.9399 70.3602 49.5819 69.8425 51.0003 68.6858C52.2605 69.7146 53.6977 70.2439 55.2317 70.2439C55.53 70.2439 55.8322 70.2238 56.1372 70.1836C59.5762 69.7294 63.0295 66.7899 65.6115 62.1188C65.8861 61.6222 65.7061 60.9972 65.2094 60.7226C64.7131 60.4482 64.0878 60.6282 63.8134 61.1247C61.5832 65.159 58.6132 67.784 55.8684 68.1465C54.3287 68.3494 52.9407 67.8215 51.7399 66.5771C51.3416 66.1646 50.6595 66.1645 50.2613 66.5771C48.7336 68.1604 46.9253 68.5829 44.8859 67.8321C42.5591 66.9756 40.1632 64.6123 38.3125 61.3479C36.2663 57.7389 34.9815 53.2105 34.6942 48.5969C34.5046 45.5507 35.3581 42.9957 37.2308 41.003C39.7333 38.3399 44.0925 36.7066 49.3494 36.4248C49.4453 36.704 49.5348 36.9876 49.6117 37.2793C49.9509 38.5645 50.0265 39.7096 50.0274 40.4698C48.1218 40.2066 46.8779 39.2609 46.867 39.2525C46.4218 38.9007 45.7757 38.9762 45.4239 39.4213C45.0721 39.8665 45.1476 40.5126 45.5929 40.8644C45.6822 40.9349 47.8154 42.5921 50.9996 42.5924C51.0003 42.5924 51.0011 42.5925 51.0018 42.5925C51.0035 42.5925 51.0052 42.5922 51.0069 42.5922C54.1881 42.5899 56.3189 40.9348 56.408 40.8642C56.9181 40.4612 56.9183 39.667 56.4125 39.2603C57.4552 38.9335 58.5011 38.438 59.4108 37.6956C66.3268 40.1324 67.5341 44.9427 67.3067 48.5966C67.1121 51.7209 66.4893 54.723 65.4553 57.5193C65.2686 58.0241 65.5158 58.6029 66.0091 58.8176C66.5431 59.05 67.1808 58.7775 67.3824 58.2319C68.486 55.2475 69.1505 52.0485 69.3575 48.7242C69.7231 42.8498 66.727 38.3993 60.8899 36.0594ZM17.3577 6.95402C17.3577 6.55398 17.6833 6.22859 18.0832 6.22859H22.5108C23.0783 6.22859 23.5382 5.76867 23.5382 5.20115V2.66256C23.5382 2.46199 23.7015 2.29889 23.9019 2.29889H30.3671C30.5676 2.29889 30.7307 2.46199 30.7307 2.66256V5.20115C30.7307 5.76854 31.1907 6.22859 31.7582 6.22859H36.186C36.586 6.22859 36.9114 6.55398 36.9114 6.95402V11.7786C36.9114 12.1786 36.5859 12.5041 36.186 12.5041H18.0832C17.6831 12.5041 17.3577 12.1786 17.3577 11.7786V6.95402ZM35.7334 39.596C35.0794 40.2921 34.531 41.0433 34.0819 41.8444H23.6602C23.0927 41.8444 22.6328 42.3043 22.6328 42.8718C22.6328 43.4392 23.0927 43.8993 23.6602 43.8993H33.1903C33.0224 44.4259 32.889 44.9694 32.7948 45.531H23.6602C23.0927 45.531 22.6328 45.9911 22.6328 46.5584C22.6328 47.1258 23.0927 47.5859 23.6602 47.5859H32.6175C32.6129 47.9595 32.6195 48.3384 32.6436 48.7249C32.719 49.9381 32.8567 51.1347 33.0521 52.308H23.6602C23.0927 52.308 22.6328 52.7681 22.6328 53.3355C22.6328 53.9028 23.0927 54.3629 23.6602 54.3629H33.4606C33.5879 54.9135 33.7275 55.4579 33.8813 55.9946H23.6602C23.0927 55.9946 22.6328 56.4547 22.6328 57.0221C22.6328 57.5895 23.0927 58.0495 23.6602 58.0495H34.55C35.1007 59.5652 35.7591 61.0107 36.5252 62.3618C36.6944 62.6602 36.8679 62.9509 37.0445 63.235H9.16623V41.7313C9.16623 41.1639 8.70631 40.7039 8.13879 40.7039C7.57127 40.7039 7.11134 41.1639 7.11134 41.7313V64.262C7.11134 64.8294 7.57127 65.2895 8.13879 65.2895H38.483C39.3833 66.4276 40.3464 67.3937 41.3471 68.1622H5.92955C5.02871 68.1622 4.2959 67.4292 4.2959 66.5285V9.61033C4.2959 8.70949 5.02871 7.97668 5.92955 7.97668H15.3028V10.8494H8.13879C7.57127 10.8494 7.11134 11.3093 7.11134 11.8769V37.6217C7.11134 38.1891 7.57127 38.6491 8.13879 38.6491C8.70631 38.6491 9.16623 38.1891 9.16623 37.6217V12.9042H15.5432C15.9763 13.8775 16.9509 14.5589 18.0832 14.5589H36.1858C37.3181 14.5589 38.2927 13.8776 38.7258 12.9042H45.1026V28.4788C44.652 28.3325 44.1456 28.5138 43.8981 28.9398C43.6131 29.4304 43.7796 30.0592 44.2701 30.3443C44.559 30.5122 44.8349 30.6899 45.1026 30.8739V34.8921C41.156 35.6905 37.8813 37.3102 35.7334 39.596ZM47.1575 34.5593V32.6681C47.6453 33.2115 48.0728 33.7985 48.4395 34.4283C48.0062 34.4631 47.5789 34.507 47.1575 34.5593ZM52.0831 40.4546C52.0828 40.2739 52.0788 40.077 52.0695 39.8652C52.1056 39.8655 52.1394 39.8662 52.1767 39.8662C52.7775 39.8662 53.5358 39.8323 54.3652 39.7153C53.8317 39.9879 53.0457 40.3067 52.0831 40.4546ZM51.9194 37.8061C51.8934 36.2866 52.0873 33.1082 53.9714 31.2241C55.8555 29.3397 59.0384 29.1461 60.5532 29.1721C60.5793 30.6914 60.3854 33.87 58.5013 35.7541C56.6171 37.6384 53.4401 37.8314 51.9194 37.8061Z" fill="black"/>
</svg>
