<svg width="71" height="71" viewBox="0 0 71 71" fill="none" xmlns="http://www.w3.org/2000/svg">
<path d="M67.5777 48.7838L62.2116 46.3051L62.4878 45.1458C67.0992 43.1811 70.3393 38.601 70.3393 33.2758C70.3352 30.0493 69.1471 26.9608 66.9939 24.5778C66.6138 24.1567 65.9658 24.1239 65.546 24.504C65.1249 24.884 65.0921 25.5321 65.4722 25.9518C67.2851 27.9588 68.2845 30.5606 68.2886 33.2758C68.2886 39.2546 63.4311 44.119 57.4594 44.119C51.4877 44.119 46.6302 39.2546 46.6302 33.2758C46.6302 27.3587 51.4931 22.4942 57.4703 22.434C59.126 22.4163 60.7186 22.7731 62.1993 23.4936C62.7093 23.7424 63.3218 23.5305 63.5706 23.0206C63.8181 22.512 63.6061 21.8981 63.0975 21.6506C61.3284 20.7893 59.4213 20.3614 57.4485 20.3833C55.8092 20.3997 54.2179 20.7182 52.7386 21.3047C51.9228 20.6447 50.9599 20.0033 49.8412 19.4538C50.3126 18.8573 50.7488 18.2015 51.144 17.4903L55.0627 10.42C55.3506 9.89844 55.3694 9.32791 55.1141 8.85459C54.8585 8.38072 54.3704 8.08268 53.7696 8.03647L45.7168 7.45842C42.663 7.23857 40.4452 7.92682 38.883 8.83217V8.31824C38.883 5.9366 36.9471 3.99902 34.5674 3.99902C32.1876 3.99902 30.2517 5.9366 30.2517 8.31824V18.1359C26.5302 17.5014 23.1449 17.8082 20.1536 19.0572C16.9874 20.3793 14.309 22.7896 12.3526 26.0545C12.3444 26.0504 12.3376 26.0463 12.3307 26.0422C11.8085 25.7455 11.3231 25.6908 10.8883 25.8795C10.2553 26.1543 10.0735 26.7777 9.95592 27.2686C8.81432 29.8772 8.04733 33.0873 7.61256 37.0795L1.38133 39.9586C0.614342 40.3141 0.187779 41.2055 0.388756 42.0272L2.42587 50.5571C2.53524 51.0233 2.83465 51.4088 3.24891 51.6139C3.45809 51.7178 3.68641 51.7698 3.91883 51.7698C4.14169 51.7698 4.36864 51.7206 4.58329 51.6235L9.7853 49.2186C10.9775 53.9067 13.1252 58.0999 16.0045 61.1227C19.4292 64.7157 23.7999 66.6161 28.6451 66.6161H40.497C44.984 66.6161 48.9406 65.0588 52.2573 61.9881C53.8199 60.5403 55.2022 58.7698 56.3655 56.7463L64.3756 60.4446C64.5902 60.5444 64.8172 60.595 65.0441 60.595C65.2711 60.595 65.498 60.5444 65.7059 60.4419C66.1229 60.2395 66.425 59.8526 66.533 59.3891L68.5688 50.8565C68.7725 50.0376 68.3322 49.1256 67.5777 48.7838ZM38.883 11.3287C40.1034 10.3008 42.195 9.26064 45.5698 9.50387L52.9329 10.0324L49.3507 16.4953C48.9029 17.3012 48.3978 18.0201 47.8463 18.643C45.4444 17.8559 42.4819 17.5282 38.8829 18.1386V11.3287H38.883ZM32.3025 8.31811C32.3025 7.06727 33.3184 6.04967 34.5674 6.04967C35.8163 6.04967 36.8322 7.06727 36.8322 8.31811V18.573C36.3764 18.6885 34.6387 19.2198 34.569 19.2362C34.4979 19.2198 32.7617 18.6879 32.3025 18.5715V8.31811ZM33.0912 20.9219C33.2826 20.9807 33.4371 21.0313 33.5683 21.0737C34.457 21.3622 34.6826 21.3622 35.5699 21.0737C35.6984 21.0313 35.8543 20.9807 36.0416 20.9219C41.8206 19.1514 46.8517 19.6436 50.6962 22.3315C49.8567 22.8524 49.0692 23.469 48.3556 24.1827C45.9207 26.6094 44.5795 29.8387 44.5795 33.2758C44.5795 34.684 44.8065 36.0403 45.2248 37.3104C42.2362 36.9057 39.2668 36.337 36.3753 35.611C36.3671 35.6083 36.3603 35.6069 36.3521 35.6055C28.8381 33.902 21.5609 31.1006 14.144 27.0538C18.0592 20.546 24.7474 18.3653 33.0912 20.9219ZM4.28251 49.503L2.42723 41.7333L8.14878 39.0905C8.32651 39.2669 8.52749 39.4145 8.72983 39.5444C8.65053 42.1284 8.86108 44.7001 9.33003 47.1692L4.28251 49.503ZM40.497 64.5653H28.6451C24.314 64.5653 20.5611 62.9315 17.4891 59.7077C14.6086 56.6848 12.525 52.3631 11.4928 47.5465C11.0197 45.3413 10.7695 43.0321 10.7641 40.6969C13.9426 42.4305 17.2758 43.9878 20.6937 45.3344C21.22 45.5422 21.8161 45.2825 22.024 44.7561C22.2304 44.2297 21.972 43.6337 21.4456 43.4258C17.5889 41.9055 13.8428 40.1131 10.3102 38.0965C10.3088 38.0952 10.3074 38.0952 10.3061 38.0938C10.3033 38.0924 10.2992 38.0897 10.2951 38.0883L10.2322 38.0528C10.0025 37.9215 9.69219 37.7452 9.59923 37.6481C9.59923 37.6221 9.60333 37.5702 9.62383 37.484C9.6334 37.443 9.64024 37.402 9.64434 37.3596C9.68946 36.9385 9.73868 36.5284 9.792 36.1264C10.2172 32.8999 10.8857 30.268 11.825 28.1133C11.8852 28.1475 11.9453 28.1817 12.0068 28.2145C12.0848 28.2596 12.1627 28.302 12.242 28.3458C12.2461 28.3485 12.2502 28.3512 12.2557 28.354C12.257 28.3553 12.2598 28.3553 12.2611 28.3567C15.1691 29.9798 18.0554 31.415 20.9413 32.672L20.3627 35.0987C20.2314 35.6496 20.5715 36.2027 21.1224 36.334C21.2024 36.3531 21.2824 36.3621 21.361 36.3621C21.8249 36.3621 22.2454 36.0454 22.3577 35.5744L22.8571 33.4798C26.8401 35.1055 30.8318 36.3945 34.8886 37.3689L34.3027 39.8196C34.1709 40.3704 34.5106 40.9236 35.0615 41.0554C35.1416 41.0745 35.2218 41.0838 35.3007 41.0838C35.7645 41.0838 36.1847 40.7673 36.2971 40.2966L36.8834 37.8444C39.926 38.5673 43.0435 39.1247 46.1749 39.5005C46.4032 39.9134 46.6507 40.3044 46.9173 40.6749C49.2497 43.9958 53.105 46.1696 57.4594 46.1696C58.3946 46.1696 59.3065 46.0685 60.1841 45.8784C60.1909 45.8771 60.1991 45.8757 60.2059 45.8743L60.0309 46.603C60.0227 46.6318 60.0159 46.6605 60.0104 46.6892L59.3651 49.3907C59.3446 49.4728 59.3255 49.522 59.3145 49.5452C59.186 49.589 58.8347 49.6054 58.5722 49.6177L58.486 49.6218C47.598 50.1605 36.2288 48.5445 25.6073 44.9488C25.07 44.7669 24.4876 45.0554 24.3072 45.5913C24.1253 46.1286 24.4124 46.7097 24.9497 46.8915C34.4459 50.1071 44.5302 51.7737 54.3614 51.7737C55.0545 51.7737 55.7477 51.7655 56.4381 51.7491C54.6854 56.4606 50.249 64.5653 40.497 64.5653ZM64.6779 58.3254L57.3225 54.928C57.8161 53.893 58.2577 52.8034 58.6432 51.6672L58.6679 51.6659C59.6331 51.6208 60.9538 51.5592 61.3585 49.868L61.7249 48.3395L66.5318 50.5598L64.6779 58.3254Z" fill="white"/>
<path d="M63.2869 28.3978C62.8615 28.0236 62.214 28.0649 61.8398 28.4902L55.2464 35.9825L52.9349 34.1821C52.4881 33.8341 51.8438 33.9143 51.4959 34.3609C51.1479 34.8077 51.2279 35.4519 51.6749 35.8L54.7482 38.1938C54.9348 38.3393 55.1569 38.4103 55.3776 38.4103C55.6628 38.4103 55.946 38.2917 56.1479 38.0623L63.3792 29.8451C63.7534 29.4199 63.7121 28.772 63.2869 28.3978Z" fill="white"/>
</svg>
