<svg width="71" height="71" viewBox="0 0 71 71" fill="none" xmlns="http://www.w3.org/2000/svg">
<path d="M67.3142 48.0089H64.9809V42.7589C64.9809 41.6759 64.5507 40.6373 63.7849 39.8715C63.0191 39.1057 61.9805 38.6755 60.8975 38.6755C60.2846 38.679 59.6805 38.8223 59.1312 39.0944C59.0943 38.2072 58.7663 37.3569 58.1979 36.6747C58.807 33.4882 59.1249 30.2529 59.1475 27.0089C59.1475 17.3594 52.8674 9.50886 45.1475 9.50886C43.3072 9.50765 41.4938 9.9507 39.8614 10.8004C39.7972 10.833 39.7295 10.8552 39.6642 10.8855C39.9792 9.14679 40.7168 7.51215 41.812 6.12552C42.4573 5.46961 42.817 4.5852 42.8129 3.66512C42.8087 2.74505 42.441 1.86392 41.7899 1.21386C41.1301 0.581367 40.2532 0.225349 39.3393 0.218841C38.4253 0.212333 37.5435 0.555828 36.8747 1.17886C35.9758 2.14791 35.2181 3.23901 34.6242 4.41986C30.7042 1.21386 24.9129 1.23136 22.5142 1.40286C22.2044 1.42321 21.9035 1.51553 21.6356 1.67249C21.3676 1.82944 21.14 2.0467 20.9707 2.30702C20.802 2.56783 20.6971 2.86476 20.6647 3.1737C20.6323 3.48263 20.6732 3.79486 20.784 4.08502C21.5376 6.09886 22.4565 8.04685 23.5315 9.90902C17.2222 11.6089 12.4809 18.6264 12.4809 27.0089C12.4777 30.3067 12.7453 33.5992 13.2812 36.8532C12.8023 37.5054 12.5292 38.2858 12.4972 39.0944C11.9479 38.8223 11.3438 38.679 10.7309 38.6755C9.64791 38.6755 8.6093 39.1057 7.84352 39.8715C7.07775 40.6373 6.64754 41.6759 6.64754 42.7589V48.0089H4.31421C3.38595 48.0089 2.49571 48.3776 1.83934 49.034C1.18296 49.6904 0.814209 50.5806 0.814209 51.5089L0.814209 53.8422C0.814209 54.7705 1.18296 55.6607 1.83934 56.3171C2.49571 56.9734 3.38595 57.3422 4.31421 57.3422H6.64754V62.5922C6.64754 63.6752 7.07775 64.7138 7.84352 65.4795C8.6093 66.2453 9.64791 66.6755 10.7309 66.6755C11.3438 66.672 11.9479 66.5288 12.4972 66.2567C12.5326 67.3281 12.9887 68.3425 13.7666 69.0801C14.5446 69.8177 15.5818 70.2192 16.6536 70.1976C17.7254 70.1759 18.7455 69.7329 19.4931 68.9645C20.2406 68.1961 20.6554 67.1642 20.6475 66.0922V57.3422H50.9809V66.0922C50.973 67.1642 51.3878 68.1961 52.1353 68.9645C52.8829 69.7329 53.903 70.1759 54.9748 70.1976C56.0467 70.2192 57.0839 69.8177 57.8618 69.0801C58.6397 68.3425 59.0958 67.3281 59.1312 66.2567C59.6805 66.5288 60.2846 66.672 60.8975 66.6755C61.9805 66.6755 63.0191 66.2453 63.7849 65.4795C64.5507 64.7138 64.9809 63.6752 64.9809 62.5922V57.3422H67.3142C68.2425 57.3422 69.1327 56.9734 69.7891 56.3171C70.4455 55.6607 70.8142 54.7705 70.8142 53.8422V51.5089C70.8142 50.5806 70.4455 49.6904 69.7891 49.034C69.1327 48.3776 68.2425 48.0089 67.3142 48.0089ZM4.31421 55.0089C4.00479 55.0089 3.70804 54.8859 3.48925 54.6672C3.27046 54.4484 3.14754 54.1516 3.14754 53.8422V51.5089C3.14754 51.1994 3.27046 50.9027 3.48925 50.6839C3.70804 50.4651 4.00479 50.3422 4.31421 50.3422H6.64754V55.0089H4.31421ZM38.4975 2.85886C38.6057 2.75139 38.734 2.66638 38.8752 2.6087C39.0163 2.55103 39.1674 2.52185 39.3199 2.52282C39.4723 2.5238 39.6231 2.55492 39.7635 2.61439C39.9039 2.67386 40.0311 2.76052 40.1379 2.86936C40.2452 2.97458 40.3308 3.09995 40.3897 3.23828C40.4485 3.37662 40.4795 3.5252 40.4809 3.67552C40.48 3.83462 40.4471 3.99191 40.3842 4.13803C40.3213 4.28415 40.2296 4.4161 40.1145 4.52602C38.4673 6.56443 37.4453 9.03615 37.1722 11.6427C36.3877 11.7668 35.5902 11.7868 34.8004 11.7022C35.0691 8.43822 36.3632 5.34284 38.4975 2.85886ZM23.129 3.70819C25.2932 3.60436 30.5525 3.70819 33.6197 6.65986C33.0876 8.10558 32.719 9.60631 32.5207 11.134C32.2687 11.0337 32.0167 10.9334 31.774 10.8097C30.1401 9.95631 28.3243 9.51005 26.4809 9.50886C26.3304 9.50886 26.1834 9.53102 26.034 9.53686C24.8842 7.68858 23.9123 5.73539 23.1314 3.70352L23.129 3.70819ZM10.7309 64.3422C10.2667 64.3422 9.82163 64.1578 9.49344 63.8296C9.16525 63.5014 8.98088 63.0563 8.98088 62.5922V42.7589C8.98088 42.2947 9.16525 41.8496 9.49344 41.5214C9.82163 41.1932 10.2667 41.0089 10.7309 41.0089C11.195 41.0089 11.6401 41.1932 11.9683 41.5214C12.2965 41.8496 12.4809 42.2947 12.4809 42.7589V62.5922C12.4809 63.0563 12.2965 63.5014 11.9683 63.8296C11.6401 64.1578 11.195 64.3422 10.7309 64.3422ZM18.3142 66.0922C18.3142 66.5563 18.1298 67.0014 17.8016 67.3296C17.4735 67.6578 17.0283 67.8422 16.5642 67.8422C16.1001 67.8422 15.655 67.6578 15.3268 67.3296C14.9986 67.0014 14.8142 66.5563 14.8142 66.0922V39.2589C14.8142 38.7947 14.9986 38.3496 15.3268 38.0214C15.655 37.6932 16.1001 37.5089 16.5642 37.5089C17.0283 37.5089 17.4735 37.6932 17.8016 38.0214C18.1298 38.3496 18.3142 38.7947 18.3142 39.2589V66.0922ZM20.6475 55.0089V50.3422H50.9809V55.0089H20.6475ZM50.9809 39.2589V48.0089H20.6475V39.2589C20.6475 38.1759 20.2173 37.1373 19.4516 36.3715C18.6858 35.6057 17.6472 35.1755 16.5642 35.1755C16.1734 35.1814 15.7856 35.2439 15.4127 35.361C15.014 32.5948 14.814 29.8036 14.8142 27.0089C14.8142 18.6462 20.0479 11.8422 26.4809 11.8422C27.9556 11.8426 29.4082 12.2001 30.7147 12.884C32.2978 13.682 34.046 14.0977 35.8189 14.0977C37.5917 14.0977 39.3399 13.682 40.923 12.884C42.2265 12.201 43.6759 11.8436 45.1475 11.8422C51.5805 11.8422 56.8142 18.6462 56.8142 27.0089C56.7949 29.7933 56.5448 32.5713 56.0664 35.3144C55.4643 35.1521 54.8328 35.1315 54.2215 35.2543C53.6101 35.3771 53.0355 35.6399 52.5428 36.0221C52.0501 36.4042 51.6526 36.8954 51.3816 37.457C51.1106 38.0186 50.9734 38.6353 50.9809 39.2589ZM56.8142 66.0922C56.8142 66.5563 56.6298 67.0014 56.3016 67.3296C55.9735 67.6578 55.5283 67.8422 55.0642 67.8422C54.6001 67.8422 54.155 67.6578 53.8268 67.3296C53.4986 67.0014 53.3142 66.5563 53.3142 66.0922V39.2589C53.3142 38.7947 53.4986 38.3496 53.8268 38.0214C54.155 37.6932 54.6001 37.5089 55.0642 37.5089C55.5283 37.5089 55.9735 37.6932 56.3016 38.0214C56.6298 38.3496 56.8142 38.7947 56.8142 39.2589V66.0922ZM62.6475 62.5922C62.6475 63.0563 62.4632 63.5014 62.135 63.8296C61.8068 64.1578 61.3617 64.3422 60.8975 64.3422C60.4334 64.3422 59.9883 64.1578 59.6601 63.8296C59.3319 63.5014 59.1475 63.0563 59.1475 62.5922V42.7589C59.1475 42.2947 59.3319 41.8496 59.6601 41.5214C59.9883 41.1932 60.4334 41.0089 60.8975 41.0089C61.3617 41.0089 61.8068 41.1932 62.135 41.5214C62.4632 41.8496 62.6475 42.2947 62.6475 42.7589V62.5922ZM68.4809 53.8422C68.4809 54.1516 68.358 54.4484 68.1392 54.6672C67.9204 54.8859 67.6236 55.0089 67.3142 55.0089H64.9809V50.3422H67.3142C67.6236 50.3422 67.9204 50.4651 68.1392 50.6839C68.358 50.9027 68.4809 51.1994 68.4809 51.5089V53.8422Z" fill="black"/>
<path d="M23.6809 14.782C20.7736 16.0654 18.4904 19.2329 17.5722 23.2485C17.5377 23.3981 17.533 23.553 17.5584 23.7043C17.5838 23.8557 17.6389 24.0005 17.7204 24.1306C17.8019 24.2606 17.9082 24.3733 18.0334 24.4622C18.1585 24.5511 18.2999 24.6144 18.4496 24.6485C18.5353 24.6679 18.623 24.6777 18.7109 24.6777C18.9749 24.6775 19.2311 24.5877 19.4375 24.4231C19.6439 24.2584 19.7883 24.0286 19.8472 23.7712C20.5904 20.5185 22.4221 17.8924 24.6236 16.917C24.9067 16.792 25.1285 16.5597 25.2403 16.2711C25.3521 15.9825 25.3447 15.6613 25.2197 15.3782C25.0947 15.0951 24.8624 14.8732 24.5738 14.7614C24.2852 14.6496 23.964 14.657 23.6809 14.782Z" fill="black"/>
</svg>
