<svg width="37" height="37" viewBox="0 0 37 37" fill="none" xmlns="http://www.w3.org/2000/svg">
<rect x="0.814209" y="0.307617" width="36" height="36" rx="18" fill="white" fill-opacity="0.71"/>
<path d="M18.8192 14.5146C21.0341 14.5146 22.8622 16.3428 22.8622 18.5576C22.8622 20.8076 21.0341 22.6006 18.8192 22.6006C16.5692 22.6006 14.7762 20.8076 14.7762 18.5576C14.7762 16.3428 16.5692 14.5146 18.8192 14.5146ZM18.8192 21.1943C20.2606 21.1943 21.4208 20.0342 21.4208 18.5576C21.4208 17.1162 20.2606 15.9561 18.8192 15.9561C17.3427 15.9561 16.1825 17.1162 16.1825 18.5576C16.1825 20.0342 17.3778 21.1943 18.8192 21.1943ZM23.952 14.374C23.952 14.9014 23.5302 15.3232 23.0028 15.3232C22.4755 15.3232 22.0536 14.9014 22.0536 14.374C22.0536 13.8467 22.4755 13.4248 23.0028 13.4248C23.5302 13.4248 23.952 13.8467 23.952 14.374ZM26.6239 15.3232C26.6942 16.624 26.6942 20.5264 26.6239 21.8271C26.5536 23.0928 26.2723 24.1826 25.3583 25.1318C24.4442 26.0459 23.3192 26.3271 22.0536 26.3975C20.7528 26.4678 16.8505 26.4678 15.5497 26.3975C14.2841 26.3271 13.1942 26.0459 12.245 25.1318C11.3309 24.1826 11.0497 23.0928 10.9794 21.8271C10.9091 20.5264 10.9091 16.624 10.9794 15.3232C11.0497 14.0576 11.3309 12.9326 12.245 12.0186C13.1942 11.1045 14.2841 10.8232 15.5497 10.7529C16.8505 10.6826 20.7528 10.6826 22.0536 10.7529C23.3192 10.8232 24.4442 11.1045 25.3583 12.0186C26.2723 12.9326 26.5536 14.0576 26.6239 15.3232ZM24.9364 23.1982C25.3583 22.1787 25.2528 19.7178 25.2528 18.5576C25.2528 17.4326 25.3583 14.9717 24.9364 13.917C24.6552 13.249 24.1278 12.6865 23.4598 12.4404C22.4052 12.0186 19.9442 12.124 18.8192 12.124C17.6591 12.124 15.1981 12.0186 14.1786 12.4404C13.4755 12.7217 12.9481 13.249 12.6669 13.917C12.245 14.9717 12.3505 17.4326 12.3505 18.5576C12.3505 19.7178 12.245 22.1787 12.6669 23.1982C12.9481 23.9014 13.4755 24.4287 14.1786 24.71C15.1981 25.1318 17.6591 25.0264 18.8192 25.0264C19.9442 25.0264 22.4052 25.1318 23.4598 24.71C24.1278 24.4287 24.6903 23.9014 24.9364 23.1982Z" fill="#8EBA1C"/>
</svg>
