<svg width="17" height="17" viewBox="0 0 17 17" fill="none" xmlns="http://www.w3.org/2000/svg">
<path d="M16.3455 11.6201C16.5955 11.7451 16.783 12.0264 16.783 12.3389C16.783 12.3701 16.783 12.4326 16.783 12.4951L16.033 15.7451C15.9392 16.0889 15.658 16.3076 15.3142 16.3076C7.28296 16.3076 0.814209 9.83887 0.814209 1.80762C0.814209 1.46387 1.03296 1.18262 1.37671 1.08887L4.62671 0.338867C4.68921 0.338867 4.75171 0.307617 4.78296 0.307617C5.09546 0.307617 5.37671 0.495117 5.50171 0.776367L7.00171 4.27637C7.03296 4.37012 7.06421 4.46387 7.06421 4.55762C7.06421 4.80762 6.93921 5.02637 6.78296 5.15137L4.87671 6.71387C6.03296 9.15137 7.97046 11.0889 10.408 12.2451L11.9705 10.3389C12.0955 10.1826 12.3142 10.0576 12.533 10.0576C12.658 10.0576 12.7517 10.0889 12.8455 10.1201L16.3455 11.6201Z" fill="white"/>
</svg>
