<svg width="21" height="21" viewBox="0 0 21 21" fill="none" xmlns="http://www.w3.org/2000/svg">
<path d="M20.2283 14.9785C20.5408 15.1348 20.7751 15.4863 20.7751 15.877C20.7751 15.916 20.7751 15.9941 20.7751 16.0723L19.8376 20.1348C19.7205 20.5645 19.3689 20.8379 18.9392 20.8379C8.90015 20.8379 0.814209 12.752 0.814209 2.71289C0.814209 2.2832 1.08765 1.93164 1.51733 1.81445L5.57983 0.876953C5.65796 0.876953 5.73608 0.837891 5.77515 0.837891C6.16577 0.837891 6.51733 1.07227 6.67358 1.42383L8.54858 5.79883C8.58765 5.91602 8.62671 6.0332 8.62671 6.15039C8.62671 6.46289 8.47046 6.73633 8.27515 6.89258L5.89233 8.8457C7.33765 11.8926 9.75952 14.3145 12.8064 15.7598L14.7595 13.377C14.9158 13.1816 15.1892 13.0254 15.4626 13.0254C15.6189 13.0254 15.7361 13.0645 15.8533 13.1035L20.2283 14.9785Z" fill="#8EBA1C"/>
</svg>
