<svg width="37" height="37" viewBox="0 0 37 37" fill="none" xmlns="http://www.w3.org/2000/svg">
<rect x="0.814209" y="0.307617" width="36" height="36" rx="18" fill="white" fill-opacity="0.71"/>
<path d="M26.1525 13.2615C24.2632 13.2615 22.726 11.7243 22.726 9.83496C22.726 9.54369 22.4898 9.30762 22.1987 9.30762H19.3744C19.0831 9.30762 18.847 9.54369 18.847 9.83496V21.4143C18.847 22.525 17.9434 23.4286 16.8326 23.4286C15.7218 23.4286 14.8182 22.525 14.8182 21.4143C14.8182 20.3034 15.7218 19.3998 16.8326 19.3998C17.1238 19.3998 17.3599 19.1637 17.3599 18.8725V16.0481C17.3599 15.757 17.1238 15.5208 16.8326 15.5208C13.5829 15.5208 10.9392 18.1647 10.9392 21.4143C10.9392 24.6639 13.5829 27.3076 16.8326 27.3076C20.0822 27.3076 22.726 24.6639 22.726 21.4143V16.2887C23.7756 16.8484 24.9435 17.1405 26.1525 17.1405C26.4438 17.1405 26.6799 16.9044 26.6799 16.6131V13.7888C26.6799 13.4977 26.4438 13.2615 26.1525 13.2615ZM25.6252 16.0639C24.4994 15.9703 23.4303 15.577 22.5066 14.9126C22.346 14.7969 22.1343 14.781 21.9581 14.8714C21.782 14.9615 21.6713 15.1427 21.6713 15.3406V21.4143C21.6713 24.0823 19.5006 26.2529 16.8326 26.2529C14.1645 26.2529 11.9939 24.0823 11.9939 21.4143C11.9939 18.9244 13.8844 16.8676 16.3052 16.604V18.3904C14.8633 18.6412 13.7635 19.9016 13.7635 21.4143C13.7635 23.1066 15.1402 24.4834 16.8326 24.4834C18.525 24.4834 19.9017 23.1066 19.9017 21.4143V10.3623H21.7021C21.9437 12.4126 23.5749 14.0438 25.6252 14.2854V16.0639Z" fill="#8EBA1C"/>
</svg>
