<svg width="37" height="37" viewBox="0 0 37 37" fill="none" xmlns="http://www.w3.org/2000/svg">
<rect x="0.814209" y="0.307617" width="36" height="36" rx="18" fill="white" fill-opacity="0.71"/>
<path d="M27.995 13.9521C28.4169 15.4287 28.4169 18.5928 28.4169 18.5928C28.4169 18.5928 28.4169 21.7217 27.995 23.2334C27.7841 24.0771 27.1161 24.71 26.3075 24.9209C24.7958 25.3076 18.8192 25.3076 18.8192 25.3076C18.8192 25.3076 12.8075 25.3076 11.2958 24.9209C10.4872 24.71 9.81921 24.0771 9.60828 23.2334C9.1864 21.7217 9.1864 18.5928 9.1864 18.5928C9.1864 18.5928 9.1864 15.4287 9.60828 13.9521C9.81921 13.1084 10.4872 12.4404 11.2958 12.2295C12.8075 11.8076 18.8192 11.8076 18.8192 11.8076C18.8192 11.8076 24.7958 11.8076 26.3075 12.2295C27.1161 12.4404 27.7841 13.1084 27.995 13.9521ZM16.8505 21.4404L21.8427 18.5928L16.8505 15.7451V21.4404Z" fill="#8EBA1C"/>
</svg>
