<svg width="19" height="18" viewBox="0 0 19 18" fill="none" xmlns="http://www.w3.org/2000/svg">
<path d="M15.658 2.65625C17.2986 4.29688 18.3142 6.44531 18.3142 8.78906C18.3142 13.5547 14.3298 17.4609 9.52515 17.4609C8.07983 17.4609 6.67358 17.0703 5.38452 16.4062L0.814209 17.5781L2.02515 13.0859C1.28296 11.7969 0.853271 10.3125 0.853271 8.75C0.853271 3.98438 4.75952 0.078125 9.52515 0.078125C11.8689 0.078125 14.0564 1.01562 15.658 2.65625ZM9.52515 15.9766C13.5095 15.9766 16.8298 12.7344 16.8298 8.78906C16.8298 6.83594 16.0095 5.03906 14.6423 3.67188C13.2751 2.30469 11.4783 1.5625 9.56421 1.5625C5.57983 1.5625 2.33765 4.80469 2.33765 8.75C2.33765 10.1172 2.72827 11.4453 3.4314 12.6172L3.62671 12.8906L2.88452 15.5469L5.6189 14.8047L5.85327 14.9609C6.98608 15.625 8.23608 15.9766 9.52515 15.9766ZM13.5095 10.5859C13.7048 10.7031 13.8611 10.7422 13.9001 10.8594C13.9783 10.9375 13.9783 11.3672 13.783 11.875C13.5876 12.3828 12.7283 12.8516 12.3376 12.8906C11.6345 13.0078 11.0876 12.9688 9.72046 12.3438C7.53296 11.4062 6.12671 9.21875 6.00952 9.10156C5.89233 8.94531 5.15015 7.92969 5.15015 6.83594C5.15015 5.78125 5.69702 5.27344 5.89233 5.03906C6.08765 4.80469 6.32202 4.76562 6.47827 4.76562C6.59546 4.76562 6.75171 4.76562 6.8689 4.76562C7.02515 4.76562 7.1814 4.72656 7.37671 5.15625C7.53296 5.58594 8.00171 6.64062 8.04077 6.75781C8.07983 6.875 8.1189 6.99219 8.04077 7.14844C7.65015 7.96875 7.1814 7.92969 7.41577 8.32031C8.27515 9.76562 9.09546 10.2734 10.3845 10.8984C10.5798 11.0156 10.697 10.9766 10.8533 10.8594C10.9705 10.7031 11.4001 10.1953 11.5173 10C11.6736 9.76562 11.8298 9.80469 12.0251 9.88281C12.2205 9.96094 13.2751 10.4688 13.5095 10.5859Z" fill="#8EBA1C"/>
</svg>
