<svg width="15" height="15" viewBox="0 0 15 15" fill="none" xmlns="http://www.w3.org/2000/svg">
<path d="M12.6892 2.37012C14.0017 3.68262 14.8142 5.40137 14.8142 7.27637C14.8142 11.0889 11.6267 14.2139 7.78296 14.2139C6.62671 14.2139 5.50171 13.9014 4.47046 13.3701L0.814209 14.3076L1.78296 10.7139C1.18921 9.68262 0.845459 8.49512 0.845459 7.24512C0.845459 3.43262 3.97046 0.307617 7.78296 0.307617C9.65796 0.307617 11.408 1.05762 12.6892 2.37012ZM7.78296 13.0264C10.9705 13.0264 13.6267 10.4326 13.6267 7.27637C13.6267 5.71387 12.9705 4.27637 11.8767 3.18262C10.783 2.08887 9.34546 1.49512 7.81421 1.49512C4.62671 1.49512 2.03296 4.08887 2.03296 7.24512C2.03296 8.33887 2.34546 9.40137 2.90796 10.3389L3.06421 10.5576L2.47046 12.6826L4.65796 12.0889L4.84546 12.2139C5.75171 12.7451 6.75171 13.0264 7.78296 13.0264ZM10.9705 8.71387C11.1267 8.80762 11.2517 8.83887 11.283 8.93262C11.3455 8.99512 11.3455 9.33887 11.1892 9.74512C11.033 10.1514 10.3455 10.5264 10.033 10.5576C9.47046 10.6514 9.03296 10.6201 7.93921 10.1201C6.18921 9.37012 5.06421 7.62012 4.97046 7.52637C4.87671 7.40137 4.28296 6.58887 4.28296 5.71387C4.28296 4.87012 4.72046 4.46387 4.87671 4.27637C5.03296 4.08887 5.22046 4.05762 5.34546 4.05762C5.43921 4.05762 5.56421 4.05762 5.65796 4.05762C5.78296 4.05762 5.90796 4.02637 6.06421 4.37012C6.18921 4.71387 6.56421 5.55762 6.59546 5.65137C6.62671 5.74512 6.65796 5.83887 6.59546 5.96387C6.28296 6.62012 5.90796 6.58887 6.09546 6.90137C6.78296 8.05762 7.43921 8.46387 8.47046 8.96387C8.62671 9.05762 8.72046 9.02637 8.84546 8.93262C8.93921 8.80762 9.28296 8.40137 9.37671 8.24512C9.50171 8.05762 9.62671 8.08887 9.78296 8.15137C9.93921 8.21387 10.783 8.62012 10.9705 8.71387Z" fill="white"/>
</svg>
